<svg xmlns="http://www.w3.org/2000/svg" enable-background="new 0 0 64 64" viewBox="0 0 64 64" id="clip-editing"><circle cx="32" cy="32" r="32" fill="#53b4ed"></circle><path d="M18.52 9.7h-5.09c-.54 0-.97.44-.97.97v2.75c0 .54.43.97.97.97h5.09c.53 0 .96-.43.96-.97v-2.75C19.48 10.14 19.05 9.7 18.52 9.7zM17.55 12.45H14.4v-.81h3.15V12.45zM28.19 9.7h-5.08c-.54 0-.97.44-.97.97v2.75c0 .54.43.97.97.97h5.08c.54 0 .97-.43.97-.97v-2.75C29.16 10.14 28.73 9.7 28.19 9.7zM27.22 12.45h-3.14v-.81h3.14V12.45zM37.87 9.7h-5.08c-.54 0-.97.44-.97.97v2.75c0 .54.43.97.97.97h5.08c.54 0 .97-.43.97-.97v-2.75C38.84 10.14 38.41 9.7 37.87 9.7zM36.9 12.45h-3.14v-.81h3.14V12.45zM18.52 40.34h-5.09c-.54 0-.97.44-.97.97v2.75c0 .54.43.97.97.97h5.09c.53 0 .96-.43.96-.97v-2.75C19.48 40.78 19.05 40.34 18.52 40.34zM17.55 43.09H14.4v-.81h3.15V43.09zM28.19 40.34h-5.08c-.54 0-.97.44-.97.97v2.75c0 .54.43.97.97.97h5.08c.54 0 .97-.43.97-.97v-2.75C29.16 40.78 28.73 40.34 28.19 40.34zM27.22 43.09h-3.14v-.81h3.14V43.09z"></path><path d="M54.85,52.74c-1.08-1.02-2.46-1.61-3.92-1.7l-1.26-2.37h1.95c1.2,0,2.18-0.98,2.18-2.18V8.22c0-1.2-0.98-2.18-2.19-2.18
			h-7.85V0.97c0-0.54-0.43-0.97-0.97-0.97c-0.53,0-0.97,0.43-0.97,0.97v5.07H9.36c-1.2,0-2.18,0.98-2.18,2.18v29.49
			c0,0.01,0,0.02,0,0.02v8.76c0,1.2,0.98,2.18,2.18,2.18h27.39l-1.29,2.83c-1.46,0.17-2.8,0.84-3.82,1.92
			c-1.16,1.22-1.76,2.81-1.71,4.49c0.05,1.67,0.74,3.23,1.96,4.38C33.07,63.4,34.59,64,36.2,64h0.18c3.46-0.1,6.19-3,6.09-6.46
			c-0.03-1.24-0.43-2.42-1.13-3.41l1.82-4.09l2.04,3.98c-0.64,1.03-0.96,2.23-0.93,3.47c0.05,1.67,0.75,3.23,1.97,4.38
			c1.17,1.11,2.7,1.71,4.3,1.71h0.19c3.46-0.1,6.19-3,6.09-6.46C56.77,55.45,56.07,53.89,54.85,52.74z M51.86,46.49
			c0,0.13-0.11,0.24-0.24,0.24h-2.97l-1.3-2.45c0.42-1.24,0.31-2.44-0.12-3.44l0.95-2.14h3.68V46.49z M45.9,39.06
			c-0.49-0.4-1.1-0.72-1.78-0.89l-0.24-0.47l3.54-7.75l0.81,3.85L45.9,39.06z M43.76,11.65h2.83v0.8h-2.83V11.65z M43.76,14.39h3.8
			c0.53,0,0.97-0.43,0.97-0.97v-2.74c0-0.54-0.44-0.97-0.97-0.97h-3.8V7.98h7.85c0.14,0,0.25,0.1,0.25,0.24V16h-8.1V14.39z
			 M43.76,17.94h8.1v18.82h-2.82l1.09-2.46c0.08-0.18,0.1-0.39,0.06-0.59l-1.48-7.05c-0.09-0.41-0.43-0.72-0.84-0.76
			c-0.42-0.05-0.82,0.18-0.99,0.56l-3.12,6.82V17.94z M41.89,38.09c0,0.01,0.01,0.02,0.01,0.03c-0.72,0.16-1.45,0.49-2.17,1.03
			l-2.58-5.02l0.58-3.9L41.89,38.09z M9.12,8.22c0-0.14,0.11-0.24,0.24-0.24h32.46V16H9.12V8.22z M9.12,17.94h32.7v15.88l-3.75-7.1
			c-0.2-0.37-0.61-0.58-1.02-0.51c-0.42,0.08-0.74,0.4-0.8,0.82l-1.07,7.12c-0.03,0.21,0.01,0.41,0.1,0.59l1.04,2.02H9.12V17.94z
			 M9.36,46.73c-0.13,0-0.24-0.11-0.24-0.24V38.7h28.2l0.88,1.71c-0.1-0.04-0.21-0.07-0.33-0.07h-5.08c-0.54,0-0.97,0.44-0.97,0.97
			v2.75c0,0.54,0.43,0.97,0.97,0.97h5.08c0.26,0,0.49-0.1,0.66-0.26l-0.89,1.96H9.36z M36.9,42.28v0.81h-3.14v-0.81H36.9z
			 M36.33,62.06c-1.16,0.05-2.26-0.39-3.11-1.18c-0.84-0.8-1.32-1.87-1.35-3.03c-0.04-1.16,0.38-2.26,1.18-3.1
			c0.79-0.84,1.87-1.33,3.02-1.36h0.13c1.11,0,2.16,0.42,2.98,1.18c0.84,0.8,1.32,1.87,1.35,3.03
			C40.6,59.99,38.72,61.99,36.33,62.06z M39.88,52.65c-0.7-0.51-1.49-0.87-2.33-1.05l2.42-5.32c0.48,0.4,1.06,0.7,1.71,0.88
			l0.34,0.66L39.88,52.65z M41.06,44.68c-0.55-0.51-0.97-1.35-0.85-2.35c0.14-1.16,1.06-2.13,2.2-2.34c1-0.19,1.86,0.19,2.41,0.7
			c0.55,0.51,0.97,1.35,0.85,2.36c-0.14,1.16-1.06,2.13-2.21,2.34C42.47,45.57,41.61,45.2,41.06,44.68z M44,47.43
			c-0.01-0.01-0.01-0.01-0.01-0.02c-0.01-0.03-0.02-0.05-0.03-0.07l-0.05-0.08c0.75-0.15,1.52-0.49,2.26-1.06l2.68,5.07
			c-0.83,0.23-1.6,0.63-2.27,1.18L44,47.43z M50.67,61.64c-1.15,0.05-2.26-0.39-3.1-1.18c-0.84-0.79-1.32-1.87-1.36-3.03
			c-0.07-2.39,1.82-4.39,4.21-4.46h0.13c1.11,0,2.16,0.42,2.97,1.18c0.85,0.8,1.33,1.87,1.36,3.03
			C54.95,59.57,53.06,61.57,50.67,61.64z"></path><path fill="#ddd" d="M45.67,43.05c-0.14,1.16-1.06,2.13-2.21,2.34c-0.99,0.18-1.85-0.19-2.4-0.71c-0.55-0.51-0.97-1.35-0.85-2.35
			c0.14-1.16,1.06-2.13,2.2-2.34c1-0.19,1.86,0.19,2.41,0.7C45.37,41.2,45.79,42.04,45.67,43.05z"></path><path fill="#ea9847" d="M41.9 38.12c-.72.16-1.45.49-2.17 1.03l-2.58-5.02.58-3.9 4.16 7.86C41.89 38.1 41.9 38.11 41.9 38.12zM48.85 51.27c-.83.23-1.6.63-2.27 1.18L44 47.43c-.01-.01-.01-.01-.01-.02-.01-.03-.02-.05-.03-.07l-.05-.08c.75-.15 1.52-.49 2.26-1.06L48.85 51.27zM54.88 57.18c.07 2.39-1.82 4.39-4.21 4.46-1.15.05-2.26-.39-3.1-1.18-.84-.79-1.32-1.87-1.36-3.03-.07-2.39 1.82-4.39 4.21-4.46h.13c1.11 0 2.16.42 2.97 1.18C54.37 54.95 54.85 56.02 54.88 57.18z"></path><path fill="#faa951" d="M40.53 57.6c.07 2.39-1.81 4.39-4.2 4.46-1.16.05-2.26-.39-3.11-1.18-.84-.8-1.32-1.87-1.35-3.03-.04-1.16.38-2.26 1.18-3.1.79-.84 1.87-1.33 3.02-1.36h.13c1.11 0 2.16.42 2.98 1.18C40.02 55.37 40.5 56.44 40.53 57.6zM42.02 47.82l-2.14 4.83c-.7-.51-1.49-.87-2.33-1.05l2.42-5.32c.48.4 1.06.7 1.71.88L42.02 47.82zM48.23 33.8l-2.33 5.26c-.49-.4-1.1-.72-1.78-.89l-.24-.47 3.54-7.75L48.23 33.8z"></path><rect width="3.14" height=".81" x="33.76" y="42.28" fill="#3eaf8f"></rect><rect width="2.83" height=".8" x="43.76" y="11.65" fill="#3eaf8f"></rect><path fill="#ddd" d="M9.12 17.94v18.82h27.2l-1.04-2.02c-.09-.18-.13-.38-.1-.59l1.07-7.12c.06-.42.38-.74.8-.82.41-.07.82.14 1.02.51l3.75 7.1V17.94H9.12zM31.02 30.71c-.18.82-.66 1.65-1.35 2.33-.93.93-2.06 1.42-3.05 1.42-.66 0-1.26-.21-1.71-.66-1.13-1.12-.79-3.22.76-4.77.68-.68 1.51-1.16 2.33-1.34.28-.06.56-.08.83-.07v-5.77l-6.78 2.06v5.84c.36.56.48 1.28.3 2.05-.18.82-.66 1.65-1.34 2.33-.93.94-2.06 1.43-3.06 1.43-.66 0-1.26-.22-1.71-.67-1.12-1.12-.79-3.21.76-4.76.95-.95 2.1-1.44 3.11-1.42v-5.52c0-.42.28-.8.69-.92l8.71-2.66c.3-.09.62-.04.86.15.25.18.4.47.4.78v8.18C31.09 29.27 31.19 29.96 31.02 30.71zM51.86 17.94v18.82h-2.82l1.09-2.46c.08-.18.1-.39.06-.59l-1.48-7.05c-.09-.41-.43-.72-.84-.76-.42-.05-.82.18-.99.56l-3.12 6.82V17.94H51.86z"></path><path fill="#49bda0" d="M51.86 8.22V16h-8.1v-1.61h3.8c.53 0 .97-.43.97-.97v-2.74c0-.54-.44-.97-.97-.97h-3.8V7.98h7.85C51.75 7.98 51.86 8.08 51.86 8.22zM9.36 7.98c-.13 0-.24.1-.24.24V16h32.7V7.98H9.36zM19.48 13.42c0 .54-.43.97-.96.97h-5.09c-.54 0-.97-.43-.97-.97v-2.75c0-.53.43-.97.97-.97h5.09c.53 0 .96.44.96.97V13.42zM29.16 13.42c0 .54-.43.97-.97.97h-5.08c-.54 0-.97-.43-.97-.97v-2.75c0-.53.43-.97.97-.97h5.08c.54 0 .97.44.97.97V13.42zM38.84 13.42c0 .54-.43.97-.97.97h-5.08c-.54 0-.97-.43-.97-.97v-2.75c0-.53.43-.97.97-.97h5.08c.54 0 .97.44.97.97V13.42z"></path><rect width="3.15" height=".81" x="14.4" y="11.64" fill="#3eaf8f"></rect><rect width="3.14" height=".81" x="24.08" y="11.64" fill="#3eaf8f"></rect><rect width="3.14" height=".81" x="33.76" y="11.64" fill="#3eaf8f"></rect><path fill="#49bda0" d="M37.87,45.03h-5.08c-0.54,0-0.97-0.43-0.97-0.97v-2.75c0-0.53,0.43-0.97,0.97-0.97h5.08
			c0.12,0,0.23,0.03,0.33,0.07l-0.88-1.71H9.12v7.79c0,0.13,0.11,0.24,0.24,0.24h28.28l0.89-1.96
			C38.36,44.93,38.13,45.03,37.87,45.03z M19.48,44.06c0,0.54-0.43,0.97-0.96,0.97h-5.09c-0.54,0-0.97-0.43-0.97-0.97v-2.75
			c0-0.53,0.43-0.97,0.97-0.97h5.09c0.53,0,0.96,0.44,0.96,0.97V44.06z M29.16,44.06c0,0.54-0.43,0.97-0.97,0.97h-5.08
			c-0.54,0-0.97-0.43-0.97-0.97v-2.75c0-0.53,0.43-0.97,0.97-0.97h5.08c0.54,0,0.97,0.44,0.97,0.97V44.06z"></path><rect width="3.14" height=".81" x="24.08" y="42.28" fill="#3eaf8f"></rect><rect width="3.15" height=".81" x="14.4" y="42.28" fill="#3eaf8f"></rect><path fill="#49bda0" d="M51.86,38.7v7.79c0,0.13-0.11,0.24-0.24,0.24h-2.97l-1.3-2.45c0.42-1.24,0.31-2.44-0.12-3.44l0.95-2.14H51.86
			z"></path><path d="M30.77,28.72v-8.18c0-0.31-0.15-0.6-0.4-0.78c-0.24-0.19-0.56-0.24-0.86-0.15l-8.71,2.66c-0.41,0.12-0.69,0.5-0.69,0.92
			v5.52c-1.01-0.02-2.16,0.47-3.11,1.42c-1.55,1.55-1.88,3.64-0.76,4.76c0.45,0.45,1.05,0.67,1.71,0.67c1,0,2.13-0.49,3.06-1.43
			c0.68-0.68,1.16-1.51,1.34-2.33c0.18-0.77,0.06-1.49-0.3-2.05v-5.84l6.78-2.06v5.77c-0.27-0.01-0.55,0.01-0.83,0.07
			c-0.82,0.18-1.65,0.66-2.33,1.34c-1.55,1.55-1.89,3.65-0.76,4.77c0.45,0.45,1.05,0.66,1.71,0.66c0.99,0,2.12-0.49,3.05-1.42
			c0.69-0.68,1.17-1.51,1.35-2.33C31.19,29.96,31.09,29.27,30.77,28.72z M20.46,31.38c-0.1,0.46-0.4,0.96-0.82,1.38
			c-0.87,0.86-1.81,0.99-2.03,0.76c-0.22-0.22-0.1-1.16,0.76-2.02c0.62-0.62,1.28-0.86,1.69-0.86c0.15,0,0.27,0.04,0.34,0.1
			c0.06,0.06,0.09,0.18,0.09,0.34C20.49,31.17,20.48,31.27,20.46,31.38z M29.13,30.29c-0.11,0.46-0.41,0.96-0.83,1.38
			c-0.86,0.86-1.8,0.98-2.02,0.76c-0.22-0.22-0.1-1.16,0.76-2.03c0.42-0.42,0.92-0.72,1.38-0.82c0.11-0.02,0.21-0.03,0.3-0.03
			c0.16,0,0.28,0.03,0.34,0.09c0.07,0.07,0.1,0.2,0.1,0.35C29.16,30.08,29.15,30.18,29.13,30.29z"></path><path fill="#ff5052" d="M20.49 31.08c0 .09-.01.19-.03.3-.1.46-.4.96-.82 1.38-.87.86-1.81.99-2.03.76-.22-.22-.1-1.16.76-2.02.62-.62 1.28-.86 1.69-.86.15 0 .27.04.34.1C20.46 30.8 20.49 30.92 20.49 31.08zM29.16 29.99c0 .09-.01.19-.03.3-.11.46-.41.96-.83 1.38-.86.86-1.8.98-2.02.76-.22-.22-.1-1.16.76-2.03.42-.42.92-.72 1.38-.82.11-.02.21-.03.3-.03.16 0 .28.03.34.09C29.13 29.71 29.16 29.84 29.16 29.99z"></path></svg>