<?xml version="1.0" encoding="iso-8859-1"?>
<!-- Uploaded to: SVG Repo, www.svgrepo.com, Generator: SVG Repo Mixer Tools -->
<svg version="1.1" id="Layer_1" xmlns="http://www.w3.org/2000/svg" xmlns:xlink="http://www.w3.org/1999/xlink" 
	 viewBox="0 0 512 512" xml:space="preserve">
<circle style="fill:#88C5CC;" cx="256" cy="256" r="256"/>
<rect x="212" y="340" style="fill:#E6E6E6;" width="88" height="36"/>
<path style="fill:#1E2C33;" d="M84,304V125.364c0-5.004,3.408-5.364,8.188-5.364h328c4.784,0,7.812,0.36,7.812,5.364V304H84z"/>
<path style="fill:#F5F5F5;" d="M84,304v29c0,4.78,3.408,11,8.188,11h328c4.784,0,7.812-6.22,7.812-11v-29H84z"/>
<rect x="100" y="136" style="fill:#E16B5A;" width="312" height="152"/>
<path style="fill:#F5F5F5;" d="M328,384c0-4.416-3.584-8-8-8H192c-4.416,0-8,3.584-8,8l0,0c0,4.416,3.584,8,8,8h128
	C324.416,392,328,388.416,328,384L328,384z"/>
<circle style="fill:#1E2C33;" cx="256.2" cy="320" r="8"/>
<rect x="112" y="140" style="fill:#F5F5F5;" width="16" height="136"/>
<g>
	<polygon style="fill:#242424;" points="119.9,153.156 121.756,152.796 116.34,148.452 118.068,155.176 119.164,153.632 
		120.612,155.884 121.348,155.408 119.92,153.188 	"/>
	<path style="fill:#242424;" d="M123.776,164.892h-0.556v-0.44c0-0.252-0.2-0.444-0.444-0.444h-5.556
		c-0.244,0-0.444,0.2-0.444,0.444v0.44h-0.332c-0.124,0-0.224,0.096-0.224,0.224c0,0.12,0.1,0.224,0.224,0.224h0.332v0.444
		c0,0.248,0.2,0.44,0.444,0.44h5.556c0.244,0,0.444-0.2,0.444-0.44v-0.444h0.332v1.476l-3.92,0.636
		c-0.108,0.016-0.188,0.104-0.188,0.224v0.776h-0.112c-0.248,0-0.444,0.2-0.444,0.44v2.664c0,0.252,0.2,0.444,0.444,0.444H120
		c0.244,0,0.444-0.2,0.444-0.444v-2.664c0-0.248-0.2-0.44-0.444-0.44h-0.112v-0.584l3.92-0.64c0.108-0.016,0.188-0.104,0.188-0.22
		v-1.892C124,164.988,123.9,164.892,123.776,164.892z"/>
	<path style="fill:#242424;" d="M119.004,182.084c0.06-0.016,0.116-0.028,0.176-0.048c0.204-0.048,0.428-0.152,0.66-0.3
		c0.332-0.204,0.664-0.48,0.976-0.792c1.32-1.32,2.296-3.428,2.176-3.556c-0.12-0.116-2.192,0.816-3.548,2.176
		c-0.316,0.316-0.596,0.652-0.808,0.992c-0.136,0.224-0.232,0.424-0.284,0.616c-0.02,0.068-0.036,0.136-0.048,0.204
		c-1.528,0.076-0.856,1.672-1.712,2.188c0.592,0,1.608-0.008,2.008-0.408C118.992,182.764,119.04,182.348,119.004,182.084z"/>
</g>
<path style="fill:#263740;" d="M331.872,235.664c4.988-0.672,10.268-4.612,15.012-9.352c10.836-10.84,18.868-28.192,17.868-29.188
	c-0.992-0.988-17.992,6.684-29.164,17.86c-4.716,4.712-8.64,10.092-9.368,15.024L331.872,235.664z"/>
<path style="fill:#E6E6E6;" d="M330.408,221.004c-2.408,3.252-4.008,6.36-4.188,9.004l5.652,5.656
	c2.684-0.148,5.788-1.752,9.02-4.176L330.408,221.004z"/>
<path style="fill:#FFD464;" d="M331.872,235.664l-5.652-5.656C313.488,230.48,319.072,243.756,312,248
	c4.884-0.004,13.236-0.04,16.536-3.34C331.832,241.36,332.176,237.856,331.872,235.664z"/>
<path style="fill:#263740;" d="M160,172c7.14-2.596,15.044-3.492,22.844-2.492c7.796,1.044,15.336,3.932,22.092,7.908
	c13.632,7.952,24.372,19.32,34.672,30.34c5.076,5.612,10.084,11.216,15.228,16.58c5.072,5.432,10.428,10.492,16.156,14.948
	c5.772,4.348,12.1,7.968,19.124,9.576c7,1.732,14.564,1.16,21.884-0.852c-6.648,3.66-14.564,5.5-22.504,4.732
	c-7.948-0.8-15.5-4.068-22.068-8.332c-13.244-8.612-23.432-20.28-33.704-31.236c-10.136-11.092-20.184-22.132-32.108-30.496
	c-5.98-4.1-12.468-7.48-19.52-9.324C175.064,171.388,167.544,171.12,160,172z"/>
</svg>