<svg xmlns="http://www.w3.org/2000/svg" enable-background="new 0 0 64 64" viewBox="0 0 64 64" id="motion-graphics"><circle cx="32" cy="32" r="32" fill="#ff576b"></circle><path d="M55.64,9.74H8.36c-2.57,0-4.66,2.09-4.66,4.65v29.02c0,2.57,2.09,4.66,4.66,4.66h16.85l-0.57,4h-2.12
			c-1.39,0-2.52,1.13-2.52,2.52v2.81c0,0.48,0.38,0.86,0.86,0.86h22.29c0.48,0,0.86-0.38,0.86-0.86v-2.81
			c0-1.39-1.13-2.52-2.52-2.52h-2.12l-0.57-4h16.85c2.57,0,4.66-2.1,4.66-4.66V14.39C60.31,11.82,58.22,9.74,55.64,9.74z
			 M41.48,53.79c0.44,0,0.8,0.36,0.8,0.8v1.95H21.71v-1.95c0-0.44,0.36-0.8,0.8-0.8H41.48z M26.37,52.07l0.57-4h10.12l0.57,4H26.37z
			 M58.59,43.41c0,1.62-1.32,2.95-2.95,2.95H8.36c-1.63,0-2.95-1.33-2.95-2.95V14.39c0-1.62,1.32-2.94,2.95-2.94h47.29
			c1.63,0,2.95,1.32,2.95,2.94V43.41z"></path><polygon fill="#7f82b5" points="37.63 52.07 26.37 52.07 26.94 48.07 37.06 48.07"></polygon><path fill="#8a8bc4" d="M55.64 11.45H8.36c-1.63 0-2.95 1.32-2.95 2.94v29.02c0 1.62 1.32 2.95 2.95 2.95h47.29c1.63 0 2.95-1.33 2.95-2.95V14.39C58.59 12.77 57.27 11.45 55.64 11.45zM57.61 43.41c0 1.03-.84 1.86-1.86 1.86H8.25c-1.02 0-1.86-.83-1.86-1.86V14.39c0-1.02.84-1.86 1.86-1.86h47.5c1.02 0 1.86.84 1.86 1.86V43.41zM42.29 54.59v1.95H21.71v-1.95c0-.44.36-.8.8-.8h18.96C41.92 53.79 42.29 54.15 42.29 54.59z"></path><path d="M55.75,12.53H8.25c-1.02,0-1.86,0.84-1.86,1.86v29.02c0,1.03,0.84,1.86,1.86,1.86h47.5c1.02,0,1.86-0.83,1.86-1.86V14.39
			C57.61,13.37,56.77,12.53,55.75,12.53z M55.89,43.41c0,0.08-0.07,0.14-0.14,0.14H8.25c-0.07,0-0.14-0.06-0.14-0.14V14.39
			c0-0.07,0.07-0.14,0.14-0.14h47.5c0.07,0,0.14,0.07,0.14,0.14V43.41z"></path><path fill="#4bc8f1" d="M55.75,14.25H8.25c-0.07,0-0.14,0.07-0.14,0.14v29.02c0,0.08,0.07,0.14,0.14,0.14h47.5
			c0.07,0,0.14-0.06,0.14-0.14V14.39C55.89,14.32,55.82,14.25,55.75,14.25z M39.29,28.03c-0.25,0.59-0.5,1.19-0.73,1.79l-2.57,6.55
			c-0.12,0.34-0.36,0.59-0.65,0.77v1.62c0,0.11,0,0.2-0.02,0.31c0,0.14-0.04,0.34-0.08,0.53c-0.04,0.17-0.12,0.34-0.18,0.5
			c-0.12,0.23-0.2,0.39-0.3,0.55c-0.65,0.91-1.67,1.44-2.76,1.44c-1.1,0-2.12-0.53-2.74-1.43c-0.12-0.19-0.22-0.35-0.3-0.54
			c-0.07-0.16-0.14-0.34-0.19-0.53c-0.04-0.19-0.08-0.38-0.09-0.58c-0.01-0.04-0.01-0.14-0.01-0.25v-1.62
			c-0.29-0.18-0.52-0.43-0.65-0.77l-2.26-5.77c-0.37-0.96-0.81-1.87-1.3-2.87c-0.56-1.14-0.84-2.38-0.84-3.67
			c0-4.63,3.76-8.39,8.39-8.39c0.19,0,0.37,0,0.56,0.02c4.23,0.27,7.67,3.81,7.83,8.06C40.43,25.12,39.72,27.01,39.29,28.03z"></path><path d="M32.56,15.7c-0.19-0.02-0.37-0.02-0.56-0.02c-4.63,0-8.39,3.76-8.39,8.39c0,1.29,0.28,2.53,0.84,3.67
			c0.49,1,0.93,1.91,1.3,2.87l2.26,5.77c0.13,0.34,0.36,0.59,0.65,0.77v1.62c0,0.11,0,0.2,0.01,0.25c0.01,0.2,0.04,0.4,0.09,0.58
			c0.05,0.19,0.12,0.37,0.19,0.53c0.08,0.19,0.18,0.35,0.3,0.54c0.62,0.9,1.65,1.43,2.74,1.43c1.09,0,2.11-0.53,2.76-1.44
			c0.1-0.16,0.19-0.32,0.3-0.55c0.06-0.17,0.13-0.34,0.18-0.5c0.04-0.19,0.08-0.39,0.08-0.53c0.02-0.11,0.02-0.2,0.02-0.31v-1.62
			c0.29-0.18,0.53-0.43,0.65-0.77l2.57-6.55c0.24-0.6,0.49-1.19,0.73-1.79c0.43-1.02,1.14-2.91,1.1-4.27
			C40.23,19.51,36.79,15.96,32.56,15.7z M33.61,38.91c0,0.09-0.02,0.19-0.04,0.27c-0.02,0.11-0.06,0.19-0.07,0.22
			c-0.05,0.11-0.1,0.2-0.15,0.28c-0.31,0.44-0.81,0.7-1.34,0.7c-0.54,0-1.03-0.26-1.33-0.68c-0.06-0.08-0.11-0.17-0.15-0.27
			c-0.04-0.08-0.07-0.16-0.09-0.25c-0.03-0.08-0.04-0.18-0.05-0.33c-0.01-0.03,0-0.05,0-0.09v-1.38h3.24v1.38
			C33.62,38.79,33.63,38.82,33.61,38.91z M37.71,27.36c-0.26,0.61-0.51,1.21-0.76,1.83l-2.53,6.47h-4.85l-2.23-5.69
			c-0.39-1.01-0.84-1.95-1.35-2.99c-0.44-0.91-0.66-1.88-0.66-2.92c0-3.68,2.99-6.67,6.67-6.67c0.14,0,0.29,0,0.44,0.01
			c3.37,0.22,6.1,3.03,6.23,6.41C38.7,24.56,38.34,25.88,37.71,27.36z"></path><path fill="#ffd630" d="M33.61 38.91c0 .09-.02.19-.04.27-.02.11-.06.19-.07.22-.05.11-.1.2-.15.28-.31.44-.81.7-1.34.7-.54 0-1.03-.26-1.33-.68-.06-.08-.11-.17-.15-.27-.04-.08-.07-.16-.09-.25-.03-.08-.04-.18-.05-.33-.01-.03 0-.05 0-.09v-1.38h3.24v1.38C33.62 38.79 33.63 38.82 33.61 38.91zM32.44 17.41c-.15-.01-.3-.01-.44-.01-3.68 0-6.67 2.99-6.67 6.67 0 1.03.22 2.01.66 2.92.51 1.03.96 1.98 1.35 2.99l2.23 5.69h4.85l2.53-6.47c.25-.62.5-1.22.76-1.83.63-1.48.98-2.8.96-3.54C38.55 20.44 35.81 17.63 32.44 17.41zM34.48 26.07l-2.19 4.18c-.16.29-.45.45-.76.45-.13 0-.27-.03-.4-.1-.42-.22-.58-.73-.36-1.16l1.58-3.01-2.12-.15c-.28-.02-.54-.18-.68-.42-.14-.24-.15-.54-.04-.8l2.1-4.41c.2-.43.72-.62 1.15-.41.42.2.61.71.41 1.14l-1.57 3.28 2.18.15c.29.02.55.19.69.44C34.61 25.51 34.61 25.82 34.48 26.07z"></path><path d="M34.48,26.07l-2.19,4.18c-0.16,0.29-0.45,0.45-0.76,0.45c-0.13,0-0.27-0.03-0.4-0.1c-0.42-0.22-0.58-0.73-0.36-1.16
			l1.58-3.01l-2.12-0.15c-0.28-0.02-0.54-0.18-0.68-0.42c-0.14-0.24-0.15-0.54-0.04-0.8l2.1-4.41c0.2-0.43,0.72-0.62,1.15-0.41
			c0.42,0.2,0.61,0.71,0.41,1.14l-1.57,3.28l2.18,0.15c0.29,0.02,0.55,0.19,0.69,0.44C34.61,25.51,34.61,25.82,34.48,26.07z"></path></svg>